{
  "accessors": [
    {
      "bufferView": 2,
      "componentType": 5126,
      "count": 29218,
      "max": [
        2.3605544567108154,
        2.921299934387207,
        1.156883955001831
      ],
      "min": [
        -1.8497222661972046,
        0.5642825961112976,
        -1.1561198234558105
      ],
      "type": "VEC3"
    },
    {
      "bufferView": 2,
      "byteOffset": 350616,
      "componentType": 5126,
      "count": 29218,
      "max": [
        0.9996297359466553,
        0.9999244213104248,
        0.9998931884765625
      ],
      "min": [
        -0.998944103717804,
        -0.9998928308486938,
        -0.999875545501709
      ],
      "type": "VEC3"
    },
    {
      "bufferView": 3,
      "componentType": 5126,
      "count": 29218,
      "max": [
        0.5098039507865906,
        0.5960784554481506,
        0.6509804129600525,
        1.0
      ],
      "min": [
        0.0235294122248888,
        0.03529411926865578,
        0.03529411926865578,
        1.0
      ],
      "type": "VEC4"
    },
    {
      "bufferView": 0,
      "componentType": 5125,
      "count": 175296,
      "type": "SCALAR"
    },
    {
      "bufferView": 2,
      "byteOffset": 701232,
      "componentType": 5126,
      "count": 13112,
      "max": [
        0.9782199859619141,
        0.9908866882324219,
        0.9844561815261841
      ],
      "min": [
        -0.9784679412841797,
        -0.9885349273681641,
        -5.675694942474365
      ],
      "type": "VEC3"
    },
    {
      "bufferView": 2,
      "byteOffset": 858576,
      "componentType": 5126,
      "count": 13112,
      "max": [
        0.999411940574646,
        0.9997563362121582,
        0.9995288848876953
      ],
      "min": [
        -0.999474287033081,
        -0.9996888637542725,
        -0.9995288848876953
      ],
      "type": "VEC3"
    },
    {
      "bufferView": 3,
      "byteOffset": 467488,
      "componentType": 5126,
      "count": 13112,
      "max": [
        0.95686274766922,
        0.95686274766922,
        0.95686274766922,
        1.0
      ],
      "min": [
        0.0,
        0.0,
        0.0,
        1.0
      ],
      "type": "VEC4"
    },
    {
      "bufferView": 0,
      "byteOffset": 701184,
      "componentType": 5125,
      "count": 78648,
      "type": "SCALAR"
    },
    {
      "bufferView": 2,
      "byteOffset": 1015920,
      "componentType": 5126,
      "count": 19006,
      "max": [
        1.655108094215393,
        0.6195953488349915,
        1.1422035694122314
      ],
      "min": [
        0.12995684146881104,
        -0.9335153698921204,
        -1.1422021389007568
      ],
      "type": "VEC3"
    },
    {
      "bufferView": 2,
      "byteOffset": 1243992,
      "componentType": 5126,
      "count": 19006,
      "max": [
        0.9996176958084106,
        0.9999470710754395,
        0.9998617172241211
      ],
      "min": [
        -0.999728798866272,
        -0.9997793436050415,
        -0.998157262802124
      ],
      "type": "VEC3"
    },
    {
      "bufferView": 3,
      "byteOffset": 677280,
      "componentType": 5126,
      "count": 19006,
      "max": [
        0.0235294122248888,
        0.062745101749897,
        0.12156862765550613,
        1.0
      ],
      "min": [
        0.0235294122248888,
        0.062745101749897,
        0.12156862765550613,
        1.0
      ],
      "type": "VEC4"
    },
    {
      "bufferView": 0,
      "byteOffset": 1015776,
      "componentType": 5125,
      "count": 114060,
      "type": "SCALAR"
    },
    {
      "bufferView": 2,
      "byteOffset": 1472064,
      "componentType": 5126,
      "count": 7805,
      "max": [
        0.7047322988510132,
        -0.18130680918693542,
        0.739082396030426
      ],
      "min": [
        -0.2038450390100479,
        -0.9842016100883484,
        -0.7408560514450073
      ],
      "type": "VEC3"
    },
    {
      "bufferView": 2,
      "byteOffset": 1565724,
      "componentType": 5126,
      "count": 7805,
      "max": [
        0.9994375705718994,
        0.9999685287475586,
        0.9898884892463684
      ],
      "min": [
        -0.9989967942237854,
        -0.999933123588562,
        -0.9978087544441223
      ],
      "type": "VEC3"
    },
    {
      "bufferView": 3,
      "byteOffset": 981376,
      "componentType": 5126,
      "count": 7805,
      "max": [
        0.9921568632125854,
        0.9921568632125854,
        1.0,
        1.0
      ],
      "min": [
        0.9921568632125854,
        0.9921568632125854,
        1.0,
        1.0
      ],
      "type": "VEC4"
    },
    {
      "bufferView": 0,
      "byteOffset": 1472016,
      "componentType": 5125,
      "count": 46818,
      "type": "SCALAR"
    },
    {
      "bufferView": 2,
      "byteOffset": 1659384,
      "componentType": 5126,
      "count": 8481,
      "max": [
        1.0308247804641724,
        0.07886561751365662,
        0.24749931693077087
      ],
      "min": [
        -0.10718971490859985,
        -0.26543575525283813,
        -0.09573118388652802
      ],
      "type": "VEC3"
    },
    {
      "bufferView": 2,
      "byteOffset": 1761156,
      "componentType": 5126,
      "count": 8481,
      "max": [
        0.9988003373146057,
        0.9998996257781982,
        0.9992470741271973
      ],
      "min": [
        -0.9992583990097046,
        -0.9999788999557495,
        -0.9999749660491943
      ],
      "type": "VEC3"
    },
    {
      "bufferView": 3,
      "byteOffset": 1106256,
      "componentType": 5126,
      "count": 8481,
      "max": [
        0.6235294342041016,
        0.0235294122248888,
        0.04313725605607033,
        1.0
      ],
      "min": [
        0.30588236451148987,
        0.007843137718737125,
        0.0117647061124444,
        1.0
      ],
      "type": "VEC4"
    },
    {
      "bufferView": 0,
      "byteOffset": 1659288,
      "componentType": 5125,
      "count": 50862,
      "type": "SCALAR"
    },
    {
      "bufferView": 2,
      "byteOffset": 1862928,
      "componentType": 5126,
      "count": 30162,
      "max": [
        0.4939509332180023,
        0.2328287661075592,
        0.7166995406150818
      ],
      "min": [
        -0.5389103889465332,
        -0.8387715220451355,
        -0.7166994214057922
      ],
      "type": "VEC3"
    },
    {
      "bufferView": 2,
      "byteOffset": 2224872,
      "componentType": 5126,
      "count": 30162,
      "max": [
        0.9999181032180786,
        0.9997514486312866,
        0.9999368190765381
      ],
      "min": [
        -0.9994333982467651,
        -0.9997431039810181,
        -0.9999368190765381
      ],
      "type": "VEC3"
    },
    {
      "bufferView": 3,
      "byteOffset": 1241952,
      "componentType": 5126,
      "count": 30162,
      "max": [
        0.8313725590705872,
        0.8078431487083435,
        0.7450980544090271,
        1.0
      ],
      "min": [
        0.8313725590705872,
        0.8078431487083435,
        0.7450980544090271,
        1.0
      ],
      "type": "VEC4"
    },
    {
      "bufferView": 0,
      "byteOffset": 1862736,
      "componentType": 5125,
      "count": 180948,
      "type": "SCALAR"
    },
    {
      "bufferView": 2,
      "byteOffset": 2586816,
      "componentType": 5126,
      "count": 541,
      "max": [
        0.41314321756362915,
        0.0748278871178627,
        0.5405609011650085
      ],
      "min": [
        -0.41314321756362915,
        -0.07482787221670151,
        -0.03927719593048096
      ],
      "type": "VEC3"
    },
    {
      "bufferView": 2,
      "byteOffset": 2593308,
      "componentType": 5126,
      "count": 541,
      "max": [
        1.0,
        1.0,
        1.0
      ],
      "min": [
        -1.0,
        -1.0,
        -1.0
      ],
      "type": "VEC3"
    },
    {
      "bufferView": 3,
      "byteOffset": 1724544,
      "componentType": 5126,
      "count": 541,
      "max": [
        0.10196078568696976,
        0.11764705926179886,
        0.13333334028720856,
        1.0
      ],
      "min": [
        0.10196078568696976,
        0.11764705926179886,
        0.13333334028720856,
        1.0
      ],
      "type": "VEC4"
    },
    {
      "bufferView": 1,
      "componentType": 5126,
      "count": 541,
      "max": [
        1.0,
        1.0
      ],
      "min": [
        0.125,
        0.0
      ],
      "type": "VEC2"
    },
    {
      "bufferView": 0,
      "byteOffset": 2586528,
      "componentType": 5125,
      "count": 2052,
      "type": "SCALAR"
    },
    {
      "bufferView": 2,
      "byteOffset": 2599800,
      "componentType": 5126,
      "count": 4430,
      "max": [
        5.936999797821045,
        6.067234039306641,
        4.405025482177734
      ],
      "min": [
        -4.297895431518555,
        0.0,
        -2.9409615993499756
      ],
      "type": "VEC3"
    },
    {
      "bufferView": 2,
      "byteOffset": 2652960,
      "componentType": 5126,
      "count": 4430,
      "max": [
        0.0,
        0.0,
        -0.0
      ],
      "min": [
        -1.0,
        -1.0,
        -1.0
      ],
      "type": "VEC3"
    },
    {
      "bufferView": 1,
      "byteOffset": 4328,
      "componentType": 5126,
      "count": 4430,
      "max": [
        0.6250001192092896,
        0.7500001192092896
      ],
      "min": [
        0.125,
        0.0
      ],
      "type": "VEC2"
    },
    {
      "bufferView": 0,
      "byteOffset": 2594736,
      "componentType": 5125,
      "count": 24576,
      "type": "SCALAR"
    }
  ],
  "asset": {
    "extras": {
      "author": "Katerina Novakova (https://sketchfab.com/KaterinaNovakova)",
      "license": "CC-BY-4.0 (http://creativecommons.org/licenses/by/4.0/)",
      "source": "https://sketchfab.com/3d-models/day-30-animal-businessman-eea10af609a2469787bf25fb9875d575",
      "title": "Day 30: Animal Businessman"
    },
    "generator": "Sketchfab-12.68.0",
    "version": "2.0"
  },
  "bufferViews": [
    {
      "buffer": 0,
      "byteLength": 2693040,
      "name": "floatBufferViews",
      "target": 34963
    },
    {
      "buffer": 0,
      "byteLength": 39768,
      "byteOffset": 2693040,
      "byteStride": 8,
      "name": "floatBufferViews",
      "target": 34962
    },
    {
      "buffer": 0,
      "byteLength": 2706120,
      "byteOffset": 2732808,
      "byteStride": 12,
      "name": "floatBufferViews",
      "target": 34962
    },
    {
      "buffer": 0,
      "byteLength": 1733200,
      "byteOffset": 5438928,
      "byteStride": 16,
      "name": "floatBufferViews",
      "target": 34962
    }
  ],
  "buffers": [
    {
      "byteLength": 7172128,
      "uri": "scene.bin"
    }
  ],
  "materials": [
    {
      "doubleSided": true,
      "name": "Material",
      "pbrMetallicRoughness": {
        "metallicFactor": 0.0,
        "roughnessFactor": 0.7
      }
    },
    {
      "alphaMode": "BLEND",
      "doubleSided": true,
      "name": "Backdrop",
      "pbrMetallicRoughness": {
        "baseColorFactor": [
          0.0309574,
          0.0410542,
          0.0495488,
          0.0
        ],
        "metallicFactor": 0.0
      }
    }
  ],
  "meshes": [
    {
      "name": "Object_0",
      "primitives": [
        {
          "attributes": {
            "COLOR_0": 2,
            "NORMAL": 1,
            "POSITION": 0
          },
          "indices": 3,
          "material": 0,
          "mode": 4
        }
      ]
    },
    {
      "name": "Object_1",
      "primitives": [
        {
          "attributes": {
            "COLOR_0": 6,
            "NORMAL": 5,
            "POSITION": 4
          },
          "indices": 7,
          "material": 0,
          "mode": 4
        }
      ]
    },
    {
      "name": "Object_2",
      "primitives": [
        {
          "attributes": {
            "COLOR_0": 10,
            "NORMAL": 9,
            "POSITION": 8
          },
          "indices": 11,
          "material": 0,
          "mode": 4
        }
      ]
    },
    {
      "name": "Object_3",
      "primitives": [
        {
          "attributes": {
            "COLOR_0": 14,
            "NORMAL": 13,
            "POSITION": 12
          },
          "indices": 15,
          "material": 0,
          "mode": 4
        }
      ]
    },
    {
      "name": "Object_4",
      "primitives": [
        {
          "attributes": {
            "COLOR_0": 18,
            "NORMAL": 17,
            "POSITION": 16
          },
          "indices": 19,
          "material": 0,
          "mode": 4
        }
      ]
    },
    {
      "name": "Object_5",
      "primitives": [
        {
          "attributes": {
            "COLOR_0": 22,
            "NORMAL": 21,
            "POSITION": 20
          },
          "indices": 23,
          "material": 0,
          "mode": 4
        }
      ]
    },
    {
      "name": "Object_6",
      "primitives": [
        {
          "attributes": {
            "COLOR_0": 26,
            "NORMAL": 25,
            "POSITION": 24,
            "TEXCOORD_0": 27
          },
          "indices": 28,
          "material": 0,
          "mode": 4
        }
      ]
    },
    {
      "name": "Object_7",
      "primitives": [
        {
          "attributes": {
            "NORMAL": 30,
            "POSITION": 29,
            "TEXCOORD_0": 31
          },
          "indices": 32,
          "material": 1,
          "mode": 4
        }
      ]
    }
  ],
  "nodes": [
    {
      "children": [
        1
      ],
      "matrix": [
        1.0,
        0.0,
        0.0,
        0.0,
        0.0,
        2.220446049250313e-16,
        -1.0,
        0.0,
        0.0,
        1.0,
        2.220446049250313e-16,
        0.0,
        0.0,
        0.0,
        0.0,
        1.0
      ],
      "name": "Sketchfab_model"
    },
    {
      "children": [
        2
      ],
      "name": "root"
    },
    {
      "children": [
        3,
        5,
        7,
        9,
        11,
        13,
        15,
        17
      ],
      "matrix": [
        1.0,
        0.0,
        0.0,
        0.0,
        0.0,
        2.220446049250313e-16,
        1.0,
        0.0,
        0.0,
        -1.0,
        2.220446049250313e-16,
        0.0,
        0.0,
        0.0,
        0.0,
        1.0
      ],
      "name": "GLTF_SceneRootNode"
    },
    {
      "children": [
        4
      ],
      "matrix": [
        1.0,
        0.0,
        0.0,
        0.0,
        0.0,
        1.0,
        0.0,
        0.0,
        0.0,
        0.0,
        1.0,
        0.0,
        0.0,
        0.11295640468597412,
        0.0,
        1.0
      ],
      "name": "Shark_0"
    },
    {
      "mesh": 0,
      "name": "Object_4"
    },
    {
      "children": [
        6
      ],
      "matrix": [
        0.2156246304512024,
        0.0,
        0.0,
        0.0,
        0.0,
        0.2156246304512024,
        0.0,
        0.0,
        0.0,
        0.0,
        0.2156246304512024,
        0.0,
        -0.8393298983573914,
        2.1131927967071533,
        0.5057733654975891,
        1.0
      ],
      "name": "Eyes_1"
    },
    {
      "mesh": 1,
      "name": "Object_6"
    },
    {
      "children": [
        8
      ],
      "matrix": [
        1.0,
        0.0,
        0.0,
        0.0,
        0.0,
        1.0,
        0.0,
        0.0,
        0.0,
        0.0,
        1.0,
        0.0,
        -0.3077763319015503,
        1.592308759689331,
        -3.299825402791612e-05,
        1.0
      ],
      "name": "Suit_2"
    },
    {
      "mesh": 2,
      "name": "Object_8"
    },
    {
      "children": [
        10
      ],
      "matrix": [
        1.0,
        0.0,
        0.0,
        0.0,
        0.0,
        1.0,
        0.0,
        0.0,
        0.0,
        0.0,
        1.0,
        0.0,
        -0.3077763319015503,
        1.592308759689331,
        -3.299825402791612e-05,
        1.0
      ],
      "name": "Shirt_3"
    },
    {
      "mesh": 3,
      "name": "Object_10"
    },
    {
      "children": [
        12
      ],
      "matrix": [
        0.9732022194825454,
        -0.22995095127928375,
        -0.0,
        0.0,
        0.22995095127928375,
        0.9732022194825454,
        0.0,
        0.0,
        0.0,
        0.0,
        1.0,
        0.0,
        -0.41247886419296265,
        0.6516396999359131,
        -3.497168290778063e-05,
        1.0
      ],
      "name": "Tie_4"
    },
    {
      "mesh": 4,
      "name": "Object_12"
    },
    {
      "children": [
        14
      ],
      "matrix": [
        0.4055593044962923,
        0.9140687340328446,
        2.7684614257912143e-07,
        0.0,
        0.9140687340328446,
        -0.4055593044961636,
        -4.257050450671837e-07,
        0.0,
        -2.7684614257912143e-07,
        4.257050450671837e-07,
        -0.9999999999998712,
        0.0,
        -0.5890375375747681,
        1.3006525039672852,
        0.0,
        1.0
      ],
      "name": "Teeth_5"
    },
    {
      "mesh": 5,
      "name": "Object_14"
    },
    {
      "children": [
        16
      ],
      "matrix": [
        0.9858899151230249,
        -5.249738990742436e-09,
        -0.16739496784167296,
        0.0,
        0.16739496784167296,
        -4.425118049766752e-10,
        0.9858899151230249,
        0.0,
        -5.249738990742436e-09,
        -1.0,
        4.4251191599897766e-10,
        0.0,
        0.9280513525009155,
        0.7883126735687256,
        1.1051603555679321,
        1.0
      ],
      "name": "Suitcase_6"
    },
    {
      "mesh": 6,
      "name": "Object_16"
    },
    {
      "children": [
        18
      ],
      "matrix": [
        1.5177072286605835,
        0.0,
        0.0,
        0.0,
        0.0,
        1.5177072286605835,
        0.0,
        0.0,
        0.0,
        0.0,
        1.5177072286605835,
        0.0,
        -1.517110824584961,
        -0.17004510760307312,
        -2.0286014080047607,
        1.0
      ],
      "name": "Backdrop_8"
    },
    {
      "mesh": 7,
      "name": "Object_18"
    }
  ],
  "scene": 0,
  "scenes": [
    {
      "name": "Sketchfab_Scene",
      "nodes": [
        0
      ]
    }
  ]
}
